<?xml version="1.0" encoding="UTF-8"?>
<svg width="63px" height="62px" viewBox="0 0 63 62" version="1.1" xmlns="http://www.w3.org/2000/svg" xmlns:xlink="http://www.w3.org/1999/xlink">
    <title>Group</title>
    <g id="Page-1" stroke="none" stroke-width="1" fill="none" fill-rule="evenodd">
        <g id="iPhone-15-Pro" transform="translate(-165, -386)" fill="color(display-p3 1.000 1.000 1.000)">
            <g id="Group" transform="translate(0, 137)">
                <g transform="translate(143, 254)">
                    <g transform="translate(23, 0)">
                        <g transform="translate(0.5, 0.25)">
                            <g id="􀎷" transform="translate(0, 0.75)" fill-rule="nonzero">
                                <path d="M9.79980469,44.1220703 L49.8310547,44.1220703 C51.1025391,44.1220703 52.1142578,43.7495117 52.8662109,43.0043945 C53.6181641,42.2592773 53.9941406,41.2646484 53.9941406,40.0205078 L53.9941406,10.4277344 C53.9941406,9.19726562 53.6181641,8.20947266 52.8662109,7.46435547 C52.1142578,6.71923828 51.1025391,6.34667969 49.8310547,6.34667969 L9.79980469,6.34667969 C8.54199219,6.34667969 7.53369141,6.71923828 6.77490234,7.46435547 C6.01611328,8.20947266 5.63671875,9.19726562 5.63671875,10.4277344 L5.63671875,40.0205078 C5.63671875,41.2646484 6.01611328,42.2592773 6.77490234,43.0043945 C7.53369141,43.7495117 8.54199219,44.1220703 9.79980469,44.1220703 Z M9.8203125,40.8203125 C9.09570312,40.8203125 8.73339844,40.4648438 8.73339844,39.7539062 L8.73339844,37.4365234 C8.73339844,37.1494141 8.82568359,36.9135742 9.01025391,36.7290039 C9.19482422,36.5444336 9.4375,36.4521484 9.73828125,36.4521484 L12.3837891,36.4521484 C12.6845703,36.4521484 12.9238281,36.5444336 13.1015625,36.7290039 C13.2792969,36.9135742 13.3681641,37.1494141 13.3681641,37.4365234 L13.3681641,39.8154297 C13.3681641,40.1025391 13.2792969,40.3417969 13.1015625,40.5332031 C12.9238281,40.7246094 12.6845703,40.8203125 12.3837891,40.8203125 L9.8203125,40.8203125 Z M9.73828125,34.0322266 C9.4375,34.0322266 9.19482422,33.9331055 9.01025391,33.7348633 C8.82568359,33.5366211 8.73339844,33.3076172 8.73339844,33.0478516 L8.73339844,30.7099609 C8.73339844,30.4091797 8.82568359,30.1665039 9.01025391,29.9819336 C9.19482422,29.7973633 9.4375,29.7050781 9.73828125,29.7050781 L12.3837891,29.7050781 C12.6845703,29.7050781 12.9238281,29.7973633 13.1015625,29.9819336 C13.2792969,30.1665039 13.3681641,30.4091797 13.3681641,30.7099609 L13.3681641,33.0478516 C13.3681641,33.3076172 13.2792969,33.5366211 13.1015625,33.7348633 C12.9238281,33.9331055 12.6845703,34.0322266 12.3837891,34.0322266 L9.73828125,34.0322266 Z M9.73828125,27.3876953 C9.4375,27.3876953 9.19482422,27.2919922 9.01025391,27.1005859 C8.82568359,26.9091797 8.73339844,26.6835938 8.73339844,26.4238281 L8.73339844,24.0859375 C8.73339844,23.7851563 8.82568359,23.5424805 9.01025391,23.3579102 C9.19482422,23.1733398 9.4375,23.0810547 9.73828125,23.0810547 L12.3837891,23.0810547 C12.6845703,23.0810547 12.9238281,23.1733398 13.1015625,23.3579102 C13.2792969,23.5424805 13.3681641,23.7851563 13.3681641,24.0859375 L13.3681641,26.4238281 C13.3681641,26.6835938 13.2792969,26.9091797 13.1015625,27.1005859 C12.9238281,27.2919922 12.6845703,27.3876953 12.3837891,27.3876953 L9.73828125,27.3876953 Z M9.73828125,20.8046875 C9.4375,20.8046875 9.19482422,20.7089844 9.01025391,20.5175781 C8.82568359,20.3261719 8.73339844,20.1005859 8.73339844,19.8408203 L8.73339844,17.4824219 C8.73339844,17.1816406 8.82568359,16.9389648 9.01025391,16.7543945 C9.19482422,16.5698242 9.4375,16.4775391 9.73828125,16.4775391 L12.3837891,16.4775391 C12.6845703,16.4775391 12.9238281,16.5698242 13.1015625,16.7543945 C13.2792969,16.9389648 13.3681641,17.1816406 13.3681641,17.4824219 L13.3681641,19.8408203 C13.3681641,20.1005859 13.2792969,20.3261719 13.1015625,20.5175781 C12.9238281,20.7089844 12.6845703,20.8046875 12.3837891,20.8046875 L9.73828125,20.8046875 Z M9.73828125,14.0166016 C9.4375,14.0166016 9.19482422,13.9208984 9.01025391,13.7294922 C8.82568359,13.5380859 8.73339844,13.3125 8.73339844,13.0527344 L8.73339844,10.7353516 C8.73339844,10.0107422 9.09570312,9.6484375 9.8203125,9.6484375 L12.3837891,9.6484375 C12.6845703,9.6484375 12.9238281,9.74072266 13.1015625,9.92529297 C13.2792969,10.1098633 13.3681641,10.3525391 13.3681641,10.6533203 L13.3681641,13.0527344 C13.3681641,13.3125 13.2792969,13.5380859 13.1015625,13.7294922 C12.9238281,13.9208984 12.6845703,14.0166016 12.3837891,14.0166016 L9.73828125,14.0166016 Z M47.2470703,40.8203125 C46.9599609,40.8203125 46.7241211,40.7246094 46.5395508,40.5332031 C46.3549805,40.3417969 46.2626953,40.1025391 46.2626953,39.8154297 L46.2626953,37.4365234 C46.2626953,37.1494141 46.3549805,36.9135742 46.5395508,36.7290039 C46.7241211,36.5444336 46.9599609,36.4521484 47.2470703,36.4521484 L49.8925781,36.4521484 C50.1933594,36.4521484 50.4360352,36.5444336 50.6206055,36.7290039 C50.8051758,36.9135742 50.8974609,37.1494141 50.8974609,37.4365234 L50.8974609,39.7539062 C50.8974609,40.4648438 50.5351562,40.8203125 49.8105469,40.8203125 L47.2470703,40.8203125 Z M47.2470703,34.0322266 C46.9599609,34.0322266 46.7241211,33.9331055 46.5395508,33.7348633 C46.3549805,33.5366211 46.2626953,33.3076172 46.2626953,33.0478516 L46.2626953,30.7099609 C46.2626953,30.4091797 46.3549805,30.1665039 46.5395508,29.9819336 C46.7241211,29.7973633 46.9599609,29.7050781 47.2470703,29.7050781 L49.8925781,29.7050781 C50.2070312,29.7050781 50.453125,29.7973633 50.6308594,29.9819336 C50.8085938,30.1665039 50.8974609,30.4091797 50.8974609,30.7099609 L50.8974609,33.0478516 C50.8974609,33.3076172 50.8051758,33.5366211 50.6206055,33.7348633 C50.4360352,33.9331055 50.1933594,34.0322266 49.8925781,34.0322266 L47.2470703,34.0322266 Z M47.2470703,27.3876953 C46.9599609,27.3876953 46.7241211,27.2919922 46.5395508,27.1005859 C46.3549805,26.9091797 46.2626953,26.6835938 46.2626953,26.4238281 L46.2626953,24.0859375 C46.2626953,23.7851563 46.3549805,23.5424805 46.5395508,23.3579102 C46.7241211,23.1733398 46.9599609,23.0810547 47.2470703,23.0810547 L49.8925781,23.0810547 C50.2070312,23.0810547 50.453125,23.1733398 50.6308594,23.3579102 C50.8085938,23.5424805 50.8974609,23.7851563 50.8974609,24.0859375 L50.8974609,26.4238281 C50.8974609,26.6835938 50.8051758,26.9091797 50.6206055,27.1005859 C50.4360352,27.2919922 50.1933594,27.3876953 49.8925781,27.3876953 L47.2470703,27.3876953 Z M47.2470703,20.8046875 C46.9599609,20.8046875 46.7241211,20.7089844 46.5395508,20.5175781 C46.3549805,20.3261719 46.2626953,20.1005859 46.2626953,19.8408203 L46.2626953,17.4824219 C46.2626953,17.1816406 46.3549805,16.9389648 46.5395508,16.7543945 C46.7241211,16.5698242 46.9599609,16.4775391 47.2470703,16.4775391 L49.8925781,16.4775391 C50.2070312,16.4775391 50.453125,16.5698242 50.6308594,16.7543945 C50.8085938,16.9389648 50.8974609,17.1816406 50.8974609,17.4824219 L50.8974609,19.8408203 C50.8974609,20.1005859 50.8051758,20.3261719 50.6206055,20.5175781 C50.4360352,20.7089844 50.1933594,20.8046875 49.8925781,20.8046875 L47.2470703,20.8046875 Z M15.6650391,25.234375 C15.6650391,24.796875 15.8120117,24.4277344 16.105957,24.1269531 C16.3999023,23.8261719 16.765625,23.6757812 17.203125,23.6757812 L42.4277344,23.6757812 C42.8652344,23.6757812 43.234375,23.8261719 43.5351563,24.1269531 C43.8359375,24.4277344 43.9863281,24.796875 43.9863281,25.234375 C43.9863281,25.6582031 43.8359375,26.0205078 43.5351563,26.3212891 C43.234375,26.6220703 42.8652344,26.7724609 42.4277344,26.7724609 L17.203125,26.7724609 C16.765625,26.7724609 16.3999023,26.6220703 16.105957,26.3212891 C15.8120117,26.0205078 15.6650391,25.6582031 15.6650391,25.234375 Z M47.2470703,14.0166016 C46.9599609,14.0166016 46.7241211,13.9208984 46.5395508,13.7294922 C46.3549805,13.5380859 46.2626953,13.3125 46.2626953,13.0527344 L46.2626953,10.6533203 C46.2626953,10.3525391 46.3549805,10.1098633 46.5395508,9.92529297 C46.7241211,9.74072266 46.9599609,9.6484375 47.2470703,9.6484375 L49.8105469,9.6484375 C50.5351562,9.6484375 50.8974609,10.0107422 50.8974609,10.7353516 L50.8974609,13.0527344 C50.8974609,13.3125 50.8051758,13.5380859 50.6206055,13.7294922 C50.4360352,13.9208984 50.1933594,14.0166016 49.8925781,14.0166016 L47.2470703,14.0166016 Z" id="Shape"></path>
                            </g>
                            <path d="M66.25,25.75 C66.25,27.6829966 64.6829966,29.25 62.75,29.25 L-2.75,29.25 C-4.68299662,29.25 -6.25,27.6829966 -6.25,25.75 C-6.25,23.9498661 -4.88565278,22.4487501 -3.01718241,22.2612619 L-2.74999999,22.25 L62.75,22.25 C64.6829966,22.25 66.25,23.8170034 66.25,25.75 Z" id="Rectangle-2" stroke="color(display-p3 0.000 0.000 0.000)" stroke-width="3.5" transform="translate(30, 25.75) rotate(-45) translate(-30, -25.75)"></path>
                        </g>
                    </g>
                </g>
            </g>
        </g>
    </g>
</svg>