<?xml version="1.0" encoding="UTF-8"?>
<svg width="72px" height="59px" viewBox="0 0 72 59" version="1.1" xmlns="http://www.w3.org/2000/svg" xmlns:xlink="http://www.w3.org/1999/xlink">
    <title>privacy icon</title>
    <g id="privacy-icon" stroke="none" fill="none" fill-rule="nonzero">
        <path d="M35.0357143,47.9362174 C30.7362857,47.9362174 27.2391429,47.1076522 24.3925714,44.8784783 L24.3925714,50.091 C24.3925714,52.4663913 23.1634286,53.6720435 20.7977143,53.6720435 L8.74028571,53.6720435 C6.38228571,53.6720435 5.14285714,52.4663913 5.14285714,50.091 L5.14285714,42.9366087 C5.14285714,31.4136522 9.29314286,24.4875652 16.074,24.4875652 C16.9997143,24.4875652 17.8765714,24.6568696 18.6917143,24.9954783 C20.826,25.8804783 22.5411429,27.9249565 23.6597143,31.1135217 C25.9611429,37.6035217 28.9285714,41.1512174 35.0357143,41.1512174 C40.9011429,41.1512174 44.712,37.7523043 47.0597143,31.1135217 C48.618,26.7090435 51.2897143,24.4875652 54.6582857,24.4875652 C61.4391429,24.4875652 65.5765714,31.4136522 65.5765714,42.9366087 L65.5765714,50.091 C65.5765714,52.4663913 61.9791429,53.6720435 61.9791429,53.6720435 L49.9242857,53.6720435 C47.5688571,53.6720435 46.3268571,52.4663913 46.3268571,50.091 L46.3268571,44.7989565 C43.524,47.0973913 40.0371429,47.9362174 35.0357143,47.9362174 Z M52.2411429,22.1326957 C47.9905714,22.1326957 44.3314286,18.2797391 44.3314286,13.4981739 C44.3314286,8.7473913 47.9442857,5.13043478 52.2411429,5.13043478 C56.5148571,5.13043478 60.1277143,8.82691304 60.1277143,13.5623043 C60.1277143,18.2951304 56.4814286,22.1326957 52.2411429,22.1326957 Z M18.4808571,22.1326957 C14.238,22.1326957 10.6045714,18.2951304 10.6045714,13.5623043 C10.6045714,8.82691304 14.2045714,5.13043478 18.4808571,5.13043478 C22.7777143,5.13043478 26.388,8.7473913 26.388,13.4981739 C26.388,18.2797391 22.7417143,22.1326957 18.4808571,22.1326957 Z" id="Shape" fill="color(display-p3 1.000 1.000 1.000)"></path>
    </g>
</svg>